<svg width="150" height="166" viewBox="0 0 150 166" fill="none" xmlns="http://www.w3.org/2000/svg">
<path d="M115.171 96.6678C115.985 100.853 113.854 103.593 111.334 105.329C108.266 107.442 104.051 106.562 102.031 103.431L95.0698 92.6415L104.373 89.3723C105.3 89.0464 105.534 87.8741 104.771 87.3844L85.9917 75.3485C90.7708 70.0695 94.9148 64.5215 98.3696 58.828C101.824 53.1346 104.591 47.2965 106.614 41.4371L115.171 96.6678Z" fill="url(#paint0_linear_1_3399)"/>
<path d="M104.677 28.9401L106.614 41.4371C102.568 53.1558 95.5501 64.7911 85.9926 75.3485L73.8821 67.5861C72.8019 66.8932 71.262 67.8783 71.4389 69.1493L73.9084 86.9532C68.7215 91.2997 63.047 95.3451 56.9245 98.9972C51.3334 102.332 45.6327 105.183 39.8969 107.556C35.394 106.153 32.3521 101.61 33.1181 96.6678L40.2148 50.8624C53.8769 52.1641 69.5474 49.3633 84.6303 42.0466C92.1588 38.3947 98.8938 33.9303 104.677 28.9401Z" fill="url(#paint1_linear_1_3399)"/>
<path d="M104.594 28.4065L104.677 28.9402C98.8938 33.9304 92.1589 38.3945 84.6301 42.0466C69.5466 49.3633 53.8768 52.1641 40.2148 50.8623L43.6946 28.4065C44.0599 26.051 46.0879 24.313 48.4728 24.313H58.3689C59.0076 10.708 65.8264 0 74.1445 0C82.4624 0 89.2815 10.708 89.9202 24.313H99.8162C102.2 24.313 104.229 26.0518 104.594 28.4065ZM62.0414 24.313H86.2484C86.1204 21.793 85.7595 19.3503 85.1703 17.0277C84.4614 14.23 83.458 11.7377 82.1892 9.61963C81.0161 7.66394 79.634 6.091 78.1899 5.07227C76.8699 4.14185 75.5098 3.66895 74.1453 3.66895C72.7808 3.66895 71.4207 4.14185 70.1006 5.07227C68.6565 6.0918 67.2744 7.66394 66.1013 9.61963C64.8318 11.7377 63.8291 14.23 63.1201 17.0277C62.5303 19.3503 62.1694 21.793 62.0414 24.313Z" fill="url(#paint2_linear_1_3399)"/>
<path d="M88.2107 103.373C89.4985 105.37 88.066 108 85.6895 108H42.8306C41.8044 108 40.8201 107.844 39.897 107.556C45.6321 105.183 51.3335 102.332 56.9246 98.9972C63.0471 95.3451 68.7216 91.2997 73.9084 86.9532L76.4803 105.491C76.6046 106.39 77.7667 106.668 78.4508 105.962L85.3159 98.8846L88.2107 103.373Z" fill="url(#paint3_linear_1_3399)"/>
<path d="M85.9915 75.3486C95.5496 64.7913 102.567 53.1559 106.613 41.4371L106.33 39.6107C102.177 51.9536 94.1377 63.7081 84.0342 74.0944L85.9915 75.3486Z" fill="#CE2420"/>
<path d="M39.8967 107.556C45.6317 105.183 51.3333 102.332 56.9243 98.9972C63.0469 95.3451 68.7213 91.2997 73.9082 86.9532L73.4785 83.8544C62.2803 93.2045 49.6333 100.947 37.3276 106.318C38.1089 106.847 38.9722 107.268 39.8967 107.556Z" fill="#CE2420"/>
<path d="M40.6095 48.3168L40.2148 50.8624C49.4303 51.7408 59.5601 50.7521 69.8069 47.7701C74.7504 46.3309 79.7217 44.4286 84.6301 42.0468C92.1589 38.3947 98.8938 33.9305 104.677 28.9401L104.594 28.4066C104.547 28.0974 104.47 27.7999 104.367 27.5149C81.0103 47.1189 54.8503 49.6959 40.6095 48.3168Z" fill="#660C46"/>
<path d="M40.2148 50.8624L42.3943 50.983C42.5762 50.991 42.7568 51.01 42.9387 51.01L43.484 51.0225L44.5745 51.0466L45.1196 51.0591L45.3922 51.0649C45.4829 51.0664 45.5742 51.0627 45.6648 51.062L46.7546 51.0459L47.8444 51.0298L48.1169 51.0247L48.3887 51.0107L48.9333 50.983L50.0215 50.9312C50.384 50.9114 50.7473 50.9048 51.1091 50.869L53.2798 50.6899C53.3704 50.682 53.4611 50.676 53.5509 50.6665L53.8213 50.6345L54.3621 50.5715L55.4438 50.4481L55.9846 50.386L56.2551 50.3552L56.524 50.3157L57.6006 50.1549C59.0391 49.9604 60.4626 49.6741 61.8907 49.4189L64.0183 48.96L64.5505 48.8452C64.728 48.808 64.9026 48.759 65.0789 48.7167L66.1343 48.4521C67.5463 48.1195 68.9355 47.7001 70.333 47.3104L72.4065 46.6512L72.9247 46.4861C73.0109 46.4583 73.0979 46.4319 73.1833 46.4027L73.4399 46.312L74.4653 45.9489L75.4922 45.5885L76.0052 45.4087L76.5125 45.2122L78.5421 44.4265C78.8828 44.3008 79.2131 44.1501 79.5479 44.0105L80.5491 43.5852L81.5503 43.1599C81.7185 43.0918 81.8806 43.0093 82.0459 42.9355L82.5406 42.7083L84.5183 41.799C85.1688 41.4775 85.8252 41.1676 86.4697 40.8335C87.7656 40.1802 89.0432 39.4902 90.3113 38.7842C91.5801 38.0781 92.8232 37.3269 94.0605 36.5675C95.2949 35.8022 96.5089 35.0042 97.7104 34.1864C98.9092 33.3649 100.091 32.5186 101.254 31.6451C101.83 31.2014 102.411 30.7637 102.977 30.3076C103.552 29.8618 104.113 29.3984 104.678 28.9395C104.132 29.4211 103.591 29.908 103.034 30.3771C102.482 30.8521 101.914 31.3074 101.351 31.7693C100.214 32.6799 99.0553 33.5645 97.8787 34.4253C96.6938 35.2747 95.4924 36.1005 94.2703 36.8971C93.9656 37.0967 93.6565 37.2903 93.3486 37.4861L92.8867 37.7786L92.4204 38.0635L91.4856 38.6321L90.543 39.1869C90.2301 39.374 89.9106 39.5509 89.5942 39.7314C89.2764 39.9097 88.9614 40.0946 88.6398 40.2671L87.678 40.7891C87.3571 40.9622 87.0319 41.1273 86.7087 41.2969C86.0642 41.6389 85.4078 41.9569 84.7566 42.2866L82.7766 43.2198C82.4457 43.3733 82.1182 43.5349 81.7842 43.6812L80.7778 44.1123L79.7714 44.5435C79.4352 44.6853 79.1035 44.8372 78.7614 44.9651L76.7222 45.7625L76.212 45.962L75.696 46.1448L74.6641 46.5103L73.6306 46.8727L73.3727 46.9634C73.2864 46.9926 73.1987 47.0189 73.1118 47.0466L72.5892 47.2112L70.5004 47.8682L68.3911 48.4572L67.8641 48.6041C67.7764 48.6282 67.6887 48.6538 67.6003 48.6765L67.3342 48.7416L66.2703 48.9988L65.2053 49.2546C65.0276 49.2957 64.8516 49.343 64.6725 49.3789L64.136 49.4893L61.9917 49.9307C60.5525 50.177 59.1172 50.4424 57.6671 50.614L56.5825 50.7588L56.3114 50.7946L56.0388 50.8215L55.4941 50.875L54.4053 50.9824L53.8608 51.0349L53.5889 51.0605C53.4983 51.0686 53.4069 51.0723 53.3156 51.0781L51.131 51.2096C50.7678 51.2374 50.4023 51.2361 50.0376 51.2477L48.9443 51.2732L48.3975 51.2842L48.1241 51.29L47.851 51.2864L46.7576 51.2688L45.6649 51.2512C45.5735 51.249 45.4829 51.2499 45.3916 51.2456L45.1189 51.231L44.573 51.2017L43.4818 51.1438C43.1178 51.1243 42.7545 51.1096 42.3921 51.0701L40.2185 50.8604L40.2148 50.8624Z" fill="url(#paint4_radial_1_3399)"/>
<path d="M39.897 107.556L42.1699 106.528C42.9248 106.179 43.677 105.826 44.4255 105.464C45.9243 104.746 47.4103 104.002 48.8851 103.238C50.3579 102.47 51.8225 101.686 53.2682 100.87C54.7161 100.057 56.1528 99.223 57.5708 98.3593C58.993 97.5018 60.3984 96.6168 61.7893 95.7089C63.1831 94.8065 64.5557 93.871 65.9194 92.9222C67.2803 91.9694 68.6272 90.9965 69.9575 90.0001L70.9543 89.2518L71.9447 88.494L73.9077 86.9547L72.9679 87.7762L72.0149 88.5824L71.0537 89.379L70.0847 90.1661C68.783 91.204 67.4595 92.2147 66.1124 93.1942C64.7683 94.1771 63.3958 95.1222 62.0107 96.0475C60.6221 96.9677 59.2145 97.8585 57.7915 98.7245C56.3647 99.5841 54.9229 100.42 53.4633 101.223C52.0016 102.021 50.5281 102.799 49.0342 103.535C47.5425 104.276 46.0334 104.981 44.511 105.654C43.7487 105.988 42.9819 106.313 42.2139 106.633L41.0583 107.105L39.8955 107.558L39.897 107.556Z" fill="url(#paint5_radial_1_3399)"/>
<path d="M85.9917 75.3485C86.5317 74.7142 87.0696 74.0797 87.6047 73.4418C88.1367 72.8014 88.6638 72.1576 89.1821 71.5071C90.2241 70.2106 91.2395 68.8934 92.2305 67.559C93.217 66.2216 94.1853 64.8701 95.116 63.4932C96.0493 62.1185 96.9553 60.7253 97.8237 59.309C98.6985 57.8961 99.5361 56.4615 100.341 55.0077C101.15 53.557 101.914 52.0814 102.653 50.5919C103.385 49.101 104.086 47.5924 104.744 46.0657C105.078 45.3033 105.397 44.536 105.709 43.7642C106.018 42.9916 106.318 42.2155 106.614 41.4371L106.227 42.6248C106.09 43.0179 105.956 43.4126 105.815 43.8043C105.533 44.5885 105.242 45.3691 104.938 46.1454C104.324 47.6947 103.663 49.2267 102.953 50.736C102.248 52.2473 101.487 53.7333 100.695 55.2015C99.8987 56.6676 99.0596 58.1104 98.187 59.5319C97.3076 60.9497 96.397 62.3479 95.4485 63.7196C94.4961 65.0886 93.5168 66.4401 92.4956 67.7577C91.479 69.0792 90.4253 70.3721 89.3428 71.6385C88.7991 72.2701 88.2471 72.8943 87.6909 73.514L86.8499 74.4379L85.9932 75.347L85.9917 75.3485Z" fill="url(#paint6_radial_1_3399)"/>
<path d="M1.11667 143.792C1.11667 141.781 1.55167 139.993 2.42167 138.427C3.29167 136.842 4.5 135.614 6.04667 134.744C7.61267 133.855 9.38167 133.41 11.3537 133.41C13.7703 133.41 15.839 134.048 17.5597 135.324C19.2803 136.6 20.4307 138.34 21.0107 140.544H15.5587C15.1527 139.693 14.5727 139.046 13.8187 138.601C13.084 138.156 12.243 137.934 11.2957 137.934C9.76833 137.934 8.531 138.466 7.58367 139.529C6.63634 140.592 6.16267 142.013 6.16267 143.792C6.16267 145.571 6.63634 146.992 7.58367 148.055C8.531 149.118 9.76833 149.65 11.2957 149.65C12.243 149.65 13.084 149.428 13.8187 148.983C14.5727 148.538 15.1527 147.891 15.5587 147.04H21.0107C20.4307 149.244 19.2803 150.984 17.5597 152.26C15.839 153.517 13.7703 154.145 11.3537 154.145C9.38167 154.145 7.61267 153.71 6.04667 152.84C4.5 151.951 3.29167 150.723 2.42167 149.157C1.55167 147.591 1.11667 145.803 1.11667 143.792ZM29.0065 132.54V154H24.0475V132.54H29.0065ZM35.0942 136.136C34.2242 136.136 33.5089 135.885 32.9482 135.382C32.4069 134.86 32.1362 134.222 32.1362 133.468C32.1362 132.695 32.4069 132.057 32.9482 131.554C33.5089 131.032 34.2242 130.771 35.0942 130.771C35.9449 130.771 36.6409 131.032 37.1822 131.554C37.7429 132.057 38.0232 132.695 38.0232 133.468C38.0232 134.222 37.7429 134.86 37.1822 135.382C36.6409 135.885 35.9449 136.136 35.0942 136.136ZM37.5592 137.818V154H32.6002V137.818H37.5592ZM40.167 145.909C40.167 144.227 40.5053 142.758 41.182 141.501C41.878 140.244 42.835 139.278 44.053 138.601C45.2903 137.924 46.7016 137.586 48.287 137.586C50.317 137.586 52.0086 138.118 53.362 139.181C54.7346 140.244 55.6336 141.743 56.059 143.676H50.781C50.3363 142.439 49.476 141.82 48.2 141.82C47.2913 141.82 46.5663 142.178 46.025 142.893C45.4836 143.589 45.213 144.594 45.213 145.909C45.213 147.224 45.4836 148.239 46.025 148.954C46.5663 149.65 47.2913 149.998 48.2 149.998C49.476 149.998 50.3363 149.379 50.781 148.142H56.059C55.6336 150.037 54.7346 151.525 53.362 152.608C51.9893 153.691 50.2976 154.232 48.287 154.232C46.7016 154.232 45.2903 153.894 44.053 153.217C42.835 152.54 41.878 151.574 41.182 150.317C40.5053 149.06 40.167 147.591 40.167 145.909ZM68.6006 154L63.6706 147.214V154H58.7116V132.54H63.6706V144.401L68.5716 137.818H74.6906L67.9626 145.938L74.7486 154H68.6006Z" fill="#07AEAF"/>
<path d="M103.915 133.642V154H98.956V141.791L94.403 154H90.401L85.819 141.762V154H80.86V133.642H86.718L92.431 147.736L98.086 133.642H103.915ZM106.495 145.88C106.495 144.217 106.804 142.758 107.423 141.501C108.061 140.244 108.921 139.278 110.004 138.601C111.087 137.924 112.295 137.586 113.629 137.586C114.77 137.586 115.765 137.818 116.616 138.282C117.486 138.746 118.153 139.355 118.617 140.109V137.818H123.576V154H118.617V151.709C118.134 152.463 117.457 153.072 116.587 153.536C115.736 154 114.741 154.232 113.6 154.232C112.285 154.232 111.087 153.894 110.004 153.217C108.921 152.521 108.061 151.545 107.423 150.288C106.804 149.012 106.495 147.543 106.495 145.88ZM118.617 145.909C118.617 144.672 118.269 143.695 117.573 142.98C116.896 142.265 116.065 141.907 115.079 141.907C114.093 141.907 113.252 142.265 112.556 142.98C111.879 143.676 111.541 144.643 111.541 145.88C111.541 147.117 111.879 148.103 112.556 148.838C113.252 149.553 114.093 149.911 115.079 149.911C116.065 149.911 116.896 149.553 117.573 148.838C118.269 148.123 118.617 147.146 118.617 145.909ZM132.123 140.515C132.703 139.626 133.428 138.93 134.298 138.427C135.168 137.905 136.134 137.644 137.198 137.644V142.893H135.835C134.597 142.893 133.669 143.164 133.051 143.705C132.432 144.227 132.123 145.155 132.123 146.489V154H127.164V137.818H132.123V140.515ZM148.587 149.795V154H146.064C144.266 154 142.864 153.565 141.859 152.695C140.854 151.806 140.351 150.365 140.351 148.374V141.936H138.379V137.818H140.351V133.874H145.31V137.818H148.558V141.936H145.31V148.432C145.31 148.915 145.426 149.263 145.658 149.476C145.89 149.689 146.277 149.795 146.818 149.795H148.587Z" fill="#FE9900"/>
<defs>
<linearGradient id="paint0_linear_1_3399" x1="101.4" y1="68.2862" x2="101.4" y2="93.637" gradientUnits="userSpaceOnUse">
<stop offset="1" stop-color="#007398"/>
<stop stop-color="#44C0C4"/>
</linearGradient>
<linearGradient id="paint1_linear_1_3399" x1="63.6054" y1="58.5262" x2="63.6054" y2="84.0341" gradientUnits="userSpaceOnUse">
<stop offset="1" stop-color="#ED2F24"/>
<stop stop-color="#F9A546"/>
</linearGradient>
<linearGradient id="paint2_linear_1_3399" x1="69.1096" y1="20.378" x2="69.1096" y2="49.6411" gradientUnits="userSpaceOnUse">
<stop offset="1" stop-color="#5E1045"/>
<stop stop-color="#EC147F"/>
</linearGradient>
<linearGradient id="paint3_linear_1_3399" x1="128.382" y1="22.6345" x2="128.382" y2="117.153" gradientUnits="userSpaceOnUse">
<stop offset="1" stop-color="#007398"/>
<stop stop-color="#44C0C4"/>
</linearGradient>
<radialGradient id="paint4_radial_1_3399" cx="0" cy="0" r="1" gradientUnits="userSpaceOnUse" gradientTransform="translate(40.2152 28.9384) scale(32.2315 11.1753)">
<stop offset="1" stop-color="#F9A546"/>
<stop stop-color="white"/>
</radialGradient>
<radialGradient id="paint5_radial_1_3399" cx="0" cy="0" r="1" gradientUnits="userSpaceOnUse" gradientTransform="translate(28.2583 92.2403) scale(17.0061 10.3015)">
<stop offset="1" stop-color="#007398"/>
<stop stop-color="white"/>
</radialGradient>
<radialGradient id="paint6_radial_1_3399" cx="0" cy="0" r="1" gradientUnits="userSpaceOnUse" gradientTransform="translate(86.2921 37.6706) scale(10.311 16.9557)">
<stop offset="1" stop-color="#007398"/>
<stop stop-color="white"/>
</radialGradient>
</defs>
</svg>
