<svg width="117" height="28" viewBox="0 0 117 28" fill="none" xmlns="http://www.w3.org/2000/svg">
<path d="M29.4023 14.016C29.4023 12.8373 29.6573 11.789 30.1673 10.871C30.6773 9.94167 31.3856 9.222 32.2923 8.712C33.2103 8.19067 34.2473 7.93 35.4033 7.93C36.82 7.93 38.0326 8.304 39.0413 9.052C40.05 9.8 40.7243 10.82 41.0643 12.112H37.8683C37.6303 11.6133 37.2903 11.2337 36.8483 10.973C36.4176 10.7123 35.9246 10.582 35.3693 10.582C34.474 10.582 33.7486 10.8937 33.1933 11.517C32.638 12.1403 32.3603 12.9733 32.3603 14.016C32.3603 15.0587 32.638 15.8917 33.1933 16.515C33.7486 17.1383 34.474 17.45 35.3693 17.45C35.9246 17.45 36.4176 17.3197 36.8483 17.059C37.2903 16.7983 37.6303 16.4187 37.8683 15.92H41.0643C40.7243 17.212 40.05 18.232 39.0413 18.98C38.0326 19.7167 36.82 20.085 35.4033 20.085C34.2473 20.085 33.2103 19.83 32.2923 19.32C31.3856 18.7987 30.6773 18.079 30.1673 17.161C29.6573 16.243 29.4023 15.1947 29.4023 14.016ZM45.7515 7.42V20H42.8445V7.42H45.7515ZM49.3202 9.528C48.8102 9.528 48.3909 9.38067 48.0622 9.086C47.7449 8.78 47.5862 8.406 47.5862 7.964C47.5862 7.51067 47.7449 7.13667 48.0622 6.842C48.3909 6.536 48.8102 6.383 49.3202 6.383C49.8189 6.383 50.2269 6.536 50.5442 6.842C50.8729 7.13667 51.0372 7.51067 51.0372 7.964C51.0372 8.406 50.8729 8.78 50.5442 9.086C50.2269 9.38067 49.8189 9.528 49.3202 9.528ZM50.7652 10.514V20H47.8582V10.514H50.7652ZM52.2939 15.257C52.2939 14.271 52.4922 13.4097 52.8889 12.673C53.2969 11.9363 53.8579 11.3697 54.5719 10.973C55.2972 10.5763 56.1245 10.378 57.0539 10.378C58.2439 10.378 59.2355 10.6897 60.0289 11.313C60.8335 11.9363 61.3605 12.8147 61.6099 13.948H58.5159C58.2552 13.2227 57.7509 12.86 57.0029 12.86C56.4702 12.86 56.0452 13.0697 55.7279 13.489C55.4105 13.897 55.2519 14.4863 55.2519 15.257C55.2519 16.0277 55.4105 16.6227 55.7279 17.042C56.0452 17.45 56.4702 17.654 57.0029 17.654C57.7509 17.654 58.2552 17.2913 58.5159 16.566H61.6099C61.3605 17.6767 60.8335 18.5493 60.0289 19.184C59.2242 19.8187 58.2325 20.136 57.0539 20.136C56.1245 20.136 55.2972 19.9377 54.5719 19.541C53.8579 19.1443 53.2969 18.5777 52.8889 17.841C52.4922 17.1043 52.2939 16.243 52.2939 15.257ZM68.9618 20L66.0718 16.022V20H63.1648V7.42H66.0718V14.373L68.9448 10.514H72.5318L68.5878 15.274L72.5658 20H68.9618Z" fill="#07AEAF"/>
<path d="M89.6632 8.066V20H86.7562V12.843L84.0872 20H81.7412L79.0552 12.826V20H76.1482V8.066H79.5822L82.9312 16.328L86.2462 8.066H89.6632ZM91.1757 15.24C91.1757 14.2653 91.357 13.4097 91.7197 12.673C92.0937 11.9363 92.598 11.3697 93.2327 10.973C93.8674 10.5763 94.5757 10.378 95.3577 10.378C96.0264 10.378 96.61 10.514 97.1087 10.786C97.6187 11.058 98.0097 11.415 98.2817 11.857V10.514H101.189V20H98.2817V18.657C97.9984 19.099 97.6017 19.456 97.0917 19.728C96.593 20 96.0094 20.136 95.3407 20.136C94.57 20.136 93.8674 19.9377 93.2327 19.541C92.598 19.133 92.0937 18.5607 91.7197 17.824C91.357 17.076 91.1757 16.2147 91.1757 15.24ZM98.2817 15.257C98.2817 14.5317 98.0777 13.9593 97.6697 13.54C97.273 13.1207 96.7857 12.911 96.2077 12.911C95.6297 12.911 95.1367 13.1207 94.7287 13.54C94.332 13.948 94.1337 14.5147 94.1337 15.24C94.1337 15.9653 94.332 16.5433 94.7287 16.974C95.1367 17.3933 95.6297 17.603 96.2077 17.603C96.7857 17.603 97.273 17.3933 97.6697 16.974C98.0777 16.5547 98.2817 15.9823 98.2817 15.257ZM106.199 12.095C106.539 11.5737 106.964 11.1657 107.474 10.871C107.984 10.565 108.55 10.412 109.174 10.412V13.489H108.375C107.649 13.489 107.105 13.6477 106.743 13.965C106.38 14.271 106.199 14.815 106.199 15.597V20H103.292V10.514H106.199V12.095ZM115.85 17.535V20H114.371C113.317 20 112.496 19.745 111.906 19.235C111.317 18.7137 111.022 17.8693 111.022 16.702V12.928H109.866V10.514H111.022V8.202H113.929V10.514H115.833V12.928H113.929V16.736C113.929 17.0193 113.997 17.2233 114.133 17.348C114.269 17.4727 114.496 17.535 114.813 17.535H115.85Z" fill="#FE9900"/>
<path d="M20.7256 24.2369C20.9297 25.2863 20.3958 25.9733 19.7639 26.4084C18.9944 26.9381 17.9373 26.7177 17.4314 25.9327L15.6858 23.2274L18.0183 22.4078C18.2507 22.326 18.3093 22.0321 18.1179 21.9093L13.4097 18.8917C14.6079 17.568 15.647 16.1771 16.5132 14.7495C17.3792 13.3221 18.073 11.8583 18.5803 10.3893L20.7256 24.2369Z" fill="url(#paint0_linear_1_617)"/>
<path d="M18.0947 7.25598L18.5803 10.3893C17.5658 13.3275 15.8063 16.2448 13.4101 18.8917L10.3737 16.9454C10.1028 16.7717 9.71673 17.0188 9.76104 17.3374L10.3803 21.8013C9.07976 22.891 7.65703 23.9054 6.122 24.8209C4.72014 25.6571 3.29082 26.3719 1.85271 26.9669C0.723807 26.6151 -0.0388887 25.4762 0.153128 24.2369L1.93242 12.7526C5.35784 13.0787 9.28679 12.3766 13.0685 10.5421C14.9561 9.62646 16.6447 8.5072 18.0947 7.25598Z" fill="url(#paint1_linear_1_617)"/>
<path d="M18.0742 7.12219L18.095 7.25604C16.6448 8.5072 14.9563 9.62646 13.0686 10.5421C9.28687 12.3766 5.35803 13.0789 1.93262 12.7524L2.80505 7.12219C2.89673 6.53162 3.40503 6.09583 4.00317 6.09583H6.48438C6.64441 2.68475 8.354 0 10.4396 0C12.5251 0 14.2349 2.68475 14.395 6.09583H16.8761C17.4739 6.09583 17.9825 6.5318 18.0742 7.12219ZM7.40503 6.09583H13.4744C13.4423 5.46411 13.3518 4.85156 13.2041 4.26929C13.0264 3.56775 12.7748 2.94293 12.4565 2.41187C12.1625 1.92157 11.8159 1.52716 11.4539 1.27173C11.1229 1.03845 10.782 0.919922 10.4398 0.919922C10.0977 0.919922 9.75659 1.03845 9.42578 1.27173C9.06372 1.52734 8.71704 1.92157 8.42297 2.41187C8.10474 2.94293 7.85327 3.56775 7.67554 4.26929C7.52759 4.85156 7.43701 5.46411 7.40503 6.09583Z" fill="url(#paint2_linear_1_617)"/>
<path d="M13.9666 25.918C14.2893 26.4187 13.9302 27.0781 13.3344 27.0781H2.58862C2.3313 27.0781 2.08447 27.0391 1.85303 26.9668C3.29102 26.3721 4.72046 25.6572 6.12231 24.821C7.65735 23.9053 9.08008 22.8911 10.3806 21.8013L11.0254 26.4492C11.0565 26.6743 11.3479 26.7444 11.5194 26.5674L13.2407 24.793L13.9666 25.918Z" fill="url(#paint3_linear_1_617)"/>
<path d="M13.4097 18.8917C15.8062 16.2446 17.5654 13.3274 18.5798 10.3893L18.509 9.9314C17.4678 13.0261 15.4521 15.9731 12.9189 18.5773L13.4097 18.8917Z" fill="#CE2420"/>
<path d="M1.85266 26.967C3.29053 26.3721 4.71997 25.6572 6.12183 24.821C7.65698 23.9053 9.07959 22.8911 10.3801 21.8013L10.2725 21.0244C7.46472 23.3687 4.2937 25.3101 1.2085 26.6565C1.40442 26.7891 1.62085 26.8948 1.85266 26.967Z" fill="#CE2420"/>
<path d="M2.03149 12.1141L1.93262 12.7524C4.24316 12.9728 6.78296 12.7247 9.35205 11.9772C10.5916 11.6163 11.8379 11.1393 13.0686 10.5421C14.9563 9.62659 16.6448 8.5072 18.095 7.25598L18.0742 7.12219C18.0623 7.0448 18.0428 6.97009 18.0171 6.89868C12.161 11.8138 5.60205 12.4601 2.03149 12.1141Z" fill="#660C46"/>
<path d="M1.93262 12.7524L2.479 12.7827C2.52466 12.7847 2.56995 12.7896 2.6156 12.7896L2.7522 12.7927L3.02563 12.7986L3.16235 12.8018L3.23071 12.8032C3.25342 12.8037 3.27637 12.8027 3.29907 12.8026L3.57227 12.7986L3.84546 12.7944L3.91382 12.7932L3.98193 12.7898L4.11853 12.7827L4.39136 12.7698C4.4823 12.7648 4.57336 12.7632 4.66406 12.7542L5.20825 12.7092C5.23096 12.7073 5.25378 12.7058 5.27637 12.7034L5.34399 12.6953L5.47974 12.6796L5.75098 12.6486L5.88647 12.6331L5.95435 12.6252L6.02173 12.6155L6.29175 12.5752C6.65234 12.5264 7.00928 12.4546 7.36731 12.3906L7.90076 12.2755L8.03418 12.2467C8.07861 12.2374 8.12244 12.2251 8.16663 12.2145L8.43127 12.1482C8.78528 12.0647 9.13354 11.9596 9.48401 11.8619L10.0039 11.6968L10.1338 11.6553C10.1554 11.6482 10.1772 11.6416 10.1987 11.6344L10.2629 11.6116L10.52 11.5205L10.7776 11.4302L10.9061 11.3851L11.0333 11.3359L11.5422 11.1389C11.6277 11.1073 11.7104 11.0696 11.7944 11.0347L12.0454 10.928L12.2964 10.8213C12.3386 10.8042 12.3793 10.7834 12.4207 10.765L12.5447 10.708L13.0405 10.48C13.2036 10.3994 13.3682 10.3218 13.5298 10.238C13.8547 10.0742 14.175 9.90112 14.493 9.72412C14.8112 9.54712 15.1228 9.35876 15.433 9.16846C15.7424 8.97656 16.0469 8.77637 16.3481 8.57153C16.6487 8.36548 16.9451 8.15332 17.2366 7.9342C17.3809 7.823 17.5266 7.71313 17.6687 7.59888C17.8127 7.48718 17.9534 7.37097 18.0951 7.25586C17.9583 7.37671 17.8225 7.49878 17.683 7.61633C17.5447 7.73535 17.4021 7.84961 17.261 7.96533C16.9758 8.1936 16.6853 8.41553 16.3904 8.63135C16.0933 8.84424 15.792 9.05127 15.4856 9.2511C15.4092 9.30103 15.3318 9.34961 15.2545 9.39868L15.1387 9.47205L15.0217 9.54346L14.7875 9.68604L14.551 9.8252C14.4727 9.87207 14.3926 9.9165 14.3132 9.96167C14.2335 10.0063 14.1545 10.0527 14.074 10.0959L13.8328 10.2268C13.7523 10.2703 13.6708 10.3118 13.5898 10.3542C13.4282 10.4399 13.2637 10.5197 13.1003 10.6023L12.6039 10.8364C12.5209 10.8748 12.4387 10.9153 12.3551 10.952L12.1028 11.0601L11.8503 11.1682C11.7661 11.2037 11.683 11.2419 11.5972 11.2739L11.0859 11.4739L10.958 11.5239L10.8286 11.5696L10.5698 11.6614L10.3108 11.7522L10.2461 11.7749C10.2244 11.7822 10.2025 11.7888 10.1807 11.7958L10.0496 11.837L9.52588 12.0017L8.99707 12.1494L8.86499 12.1863C8.84302 12.1924 8.82092 12.1987 8.79883 12.2045L8.73218 12.2207L8.46533 12.2853L8.19824 12.3494C8.15381 12.3596 8.10962 12.3716 8.0647 12.3806L7.93018 12.4082L7.39258 12.5189C7.03174 12.5806 6.67188 12.6472 6.30835 12.6902L6.03638 12.7266L5.96851 12.7356L5.90015 12.7422L5.76343 12.7556L5.49048 12.7826L5.354 12.7958L5.28577 12.8022C5.26306 12.8042 5.24023 12.8052 5.21729 12.8066L4.66956 12.8396C4.57849 12.8464 4.48682 12.8462 4.39539 12.8491L4.12134 12.8555L3.98413 12.8583L3.91565 12.8596L3.84717 12.8588L3.573 12.8545L3.29907 12.85C3.27612 12.8494 3.25342 12.8496 3.23047 12.8486L3.16211 12.845L3.02539 12.8376L2.75171 12.823C2.6604 12.8181 2.56934 12.8145 2.47852 12.8046L1.93359 12.752L1.93262 12.7524Z" fill="url(#paint4_radial_1_617)"/>
<path d="M1.85291 26.9673L2.42285 26.7095C2.61206 26.6218 2.80066 26.5334 2.98828 26.4424C3.36414 26.2627 3.73669 26.0762 4.10645 25.8845C4.47571 25.6917 4.84302 25.4951 5.20532 25.2905C5.56836 25.0869 5.92871 24.8779 6.28418 24.6611C6.64075 24.4463 6.99316 24.2244 7.3418 23.9966C7.69128 23.7705 8.0354 23.5359 8.37744 23.2979C8.71851 23.0591 9.05627 22.8152 9.38989 22.5654L9.63965 22.3777L9.88806 22.1877L10.3802 21.8018L10.1445 22.0078L9.90564 22.21L9.66467 22.4097L9.42163 22.6069C9.09534 22.8672 8.76355 23.1206 8.42578 23.3662C8.08875 23.6125 7.74463 23.8496 7.39746 24.0815C7.04919 24.3123 6.69629 24.5356 6.33948 24.7527C5.98169 24.9683 5.62024 25.1777 5.25427 25.3792C4.88782 25.5793 4.51843 25.7744 4.1438 25.959C3.76978 26.1445 3.39148 26.3213 3.00977 26.4902C2.8186 26.5737 2.62646 26.6553 2.43384 26.7354L2.14404 26.854L1.85291 26.9673Z" fill="url(#paint5_radial_1_617)"/>
<path d="M13.4097 18.8917C13.5452 18.7325 13.6799 18.5736 13.8142 18.4137C13.9475 18.2531 14.0796 18.0917 14.2095 17.9285C14.4709 17.6034 14.7253 17.2733 14.9739 16.9386C15.2214 16.6034 15.4641 16.2645 15.6975 15.9193C15.9314 15.5746 16.1584 15.2252 16.3762 14.8702C16.5955 14.516 16.8057 14.1562 17.0073 13.7917C17.2102 13.4281 17.4019 13.058 17.5869 12.6847C17.7708 12.3109 17.9463 11.9325 18.1116 11.5498C18.1951 11.3588 18.2751 11.1664 18.3533 10.9728C18.4307 10.7789 18.5059 10.5844 18.5803 10.3893L18.4832 10.6871C18.4487 10.7856 18.4153 10.8845 18.3796 10.9828C18.3091 11.1793 18.2361 11.3751 18.1602 11.5697C18.0061 11.9581 17.8401 12.3423 17.6624 12.7207C17.4854 13.0996 17.2947 13.4723 17.0962 13.8405C16.8965 14.2079 16.686 14.5697 16.4673 14.9261C16.2468 15.2816 16.0186 15.6321 15.7808 15.9761C15.5417 16.3192 15.2964 16.6581 15.0403 16.9885C14.7854 17.3198 14.5212 17.6439 14.25 17.9615C14.1135 18.1199 13.9751 18.2764 13.8357 18.4318L13.625 18.6633L13.4097 18.8917Z" fill="url(#paint6_radial_1_617)"/>
<defs>
<linearGradient id="paint0_linear_1_617" x1="17.273" y1="17.121" x2="17.273" y2="23.477" gradientUnits="userSpaceOnUse">
<stop offset="1" stop-color="#007398"/>
<stop stop-color="#44C0C4"/>
</linearGradient>
<linearGradient id="paint1_linear_1_617" x1="7.79702" y1="14.6739" x2="7.79702" y2="21.0694" gradientUnits="userSpaceOnUse">
<stop offset="1" stop-color="#ED2F24"/>
<stop stop-color="#F9A546"/>
</linearGradient>
<linearGradient id="paint2_linear_1_617" x1="9.17727" y1="5.10927" x2="9.17727" y2="12.4463" gradientUnits="userSpaceOnUse">
<stop offset="1" stop-color="#5E1045"/>
<stop stop-color="#EC147F"/>
</linearGradient>
<linearGradient id="paint3_linear_1_617" x1="24.0384" y1="5.67515" x2="24.0384" y2="29.3731" gradientUnits="userSpaceOnUse">
<stop offset="1" stop-color="#007398"/>
<stop stop-color="#44C0C4"/>
</linearGradient>
<radialGradient id="paint4_radial_1_617" cx="0" cy="0" r="1" gradientUnits="userSpaceOnUse" gradientTransform="translate(1.93271 7.2556) scale(8.08124 2.80188)">
<stop offset="1" stop-color="#F9A546"/>
<stop stop-color="white"/>
</radialGradient>
<radialGradient id="paint5_radial_1_617" cx="0" cy="0" r="1" gradientUnits="userSpaceOnUse" gradientTransform="translate(-1.06519 23.127) scale(4.26385 2.58289)">
<stop offset="1" stop-color="#007398"/>
<stop stop-color="white"/>
</radialGradient>
<radialGradient id="paint6_radial_1_617" cx="0" cy="0" r="1" gradientUnits="userSpaceOnUse" gradientTransform="translate(13.485 9.44492) scale(2.58533 4.25122)">
<stop offset="1" stop-color="#007398"/>
<stop stop-color="white"/>
</radialGradient>
</defs>
</svg>
